<svg width="31" height="40" viewBox="0 0 31 40" fill="none" xmlns="http://www.w3.org/2000/svg">
<path fill-rule="evenodd" clip-rule="evenodd" d="M13.9007 39.3256L13.9099 39.3347L13.916 39.3409C14.3179 39.6454 14.8083 39.8102 15.3125 39.8102C15.8167 39.8102 16.3071 39.6454 16.709 39.3409L16.7151 39.3347L16.7243 39.3256L16.7611 39.298C16.9582 39.1458 17.1522 38.9895 17.3429 38.8294C19.6263 36.9046 21.7241 34.7699 23.6088 32.4533C26.9806 28.2822 30.625 22.2184 30.625 15.3125C30.625 11.2514 29.0117 7.35658 26.1401 4.48493C23.2684 1.61328 19.3736 0 15.3125 0C11.2514 0 7.35658 1.61328 4.48493 4.48493C1.61328 7.35658 0 11.2514 0 15.3125C0 22.2184 3.64437 28.2822 7.01925 32.4533C8.904 34.7699 11.0018 36.9046 13.2851 38.8294L13.8639 39.298L13.9007 39.3256ZM15.3125 19.9062C15.9158 19.9062 16.5131 19.7874 17.0705 19.5566C17.6278 19.3257 18.1342 18.9873 18.5608 18.5608C18.9873 18.1342 19.3257 17.6278 19.5566 17.0705C19.7874 16.5131 19.9062 15.9158 19.9062 15.3125C19.9062 14.7092 19.7874 14.1119 19.5566 13.5545C19.3257 12.9972 18.9873 12.4908 18.5608 12.0642C18.1342 11.6377 17.6278 11.2993 17.0705 11.0684C16.5131 10.8376 15.9158 10.7187 15.3125 10.7187C14.0942 10.7187 12.9257 11.2027 12.0642 12.0642C11.2027 12.9257 10.7188 14.0942 10.7188 15.3125C10.7188 16.5308 11.2027 17.6993 12.0642 18.5608C12.9257 19.4223 14.0942 19.9062 15.3125 19.9062Z" fill="#EC5C35"/>
</svg>
